<svg version="1.1" viewBox="0.0 0.0 639.4671916010499 489.90551181102364" fill="none" stroke="none" stroke-linecap="square" stroke-miterlimit="10" xmlns:xlink="http://www.w3.org/1999/xlink" xmlns="http://www.w3.org/2000/svg"><clipPath id="p.0"><path d="m0 0l639.46716 0l0 489.90552l-639.46716 0l0 -489.90552z" clip-rule="nonzero"/></clipPath><g clip-path="url(#p.0)"><path fill="#000000" fill-opacity="0.0" d="m0 0l639.46716 0l0 489.90552l-639.46716 0z" fill-rule="evenodd"/><path fill="#000000" fill-opacity="0.0" d="m184.07611 360.4777l0 -186.96063" fill-rule="evenodd"/><path stroke="#000000" stroke-width="1.0" stroke-linejoin="round" stroke-linecap="butt" d="m184.07611 360.4777l0 -180.96063" fill-rule="evenodd"/><path fill="#000000" stroke="#000000" stroke-width="1.0" stroke-linecap="butt" d="m185.72784 179.51706l-1.6517334 -4.538101l-1.6517334 4.538101z" fill-rule="evenodd"/><path fill="#000000" fill-opacity="0.0" d="m184.07611 360.4777l-117.92126 78.61417" fill-rule="evenodd"/><path stroke="#000000" stroke-width="1.0" stroke-linejoin="round" stroke-linecap="butt" d="m184.07611 360.4777l-112.928955 75.28595" fill-rule="evenodd"/><path fill="#000000" stroke="#000000" stroke-width="1.0" stroke-linecap="butt" d="m70.23094 434.38934l-2.8597107 3.8916016l4.6921387 -1.1429443z" fill-rule="evenodd"/><path fill="#000000" fill-opacity="0.0" d="m185.03412 360.4777l160.09448 0" fill-rule="evenodd"/><path stroke="#000000" stroke-width="1.0" stroke-linejoin="round" stroke-linecap="butt" d="m185.03412 360.4777l154.09448 0" fill-rule="evenodd"/><path fill="#000000" stroke="#000000" stroke-width="1.0" stroke-linecap="butt" d="m339.1286 362.12943l4.5381165 -1.6517334l-4.5381165 -1.6517334z" fill-rule="evenodd"/><path fill="#000000" fill-opacity="0.0" d="m158.95013 333.6273l39.307083 0l0 53.700806l-39.307083 0z" fill-rule="evenodd"/><path fill="#000000" d="m168.73138 353.95355q0 -2.359375 0.484375 -3.796875q0.484375 -1.453125 1.4375 -2.234375q0.96875 -0.78125 2.421875 -0.78125q1.078125 0 1.890625 0.4375q0.8125 0.421875 1.328125 1.25q0.53125 0.8125 0.828125 1.984375q0.3125 1.15625 0.3125 3.140625q0 2.359375 -0.484375 3.8125q-0.484375 1.4375 -1.453125 2.234375q-0.953125 0.78125 -2.421875 0.78125q-1.921875 0 -3.03125 -1.390625q-1.3125 -1.671875 -1.3125 -5.4375zm1.671875 0q0 3.296875 0.765625 4.390625q0.78125 1.078125 1.90625 1.078125q1.140625 0 1.90625 -1.09375q0.765625 -1.09375 0.765625 -4.375q0 -3.296875 -0.765625 -4.375q-0.765625 -1.078125 -1.921875 -1.078125q-1.125 0 -1.796875 0.953125q-0.859375 1.21875 -0.859375 4.5z" fill-rule="nonzero"/><path fill="#000000" fill-opacity="0.0" d="m408.1053 165.04674l83.1181 -107.40157" fill-rule="evenodd"/><path stroke="#000000" stroke-width="1.0" stroke-linejoin="round" stroke-linecap="butt" d="m408.1053 165.04674l79.44592 -102.656555" fill-rule="evenodd"/><path fill="#000000" stroke="#000000" stroke-width="1.0" stroke-linecap="butt" d="m488.85745 63.401085l1.4711914 -4.5997963l-4.083679 2.5779839z" fill-rule="evenodd"/><path fill="#000000" fill-opacity="0.0" d="m408.1053 165.04674l-95.968506 -13.102356" fill-rule="evenodd"/><path stroke="#000000" stroke-width="1.0" stroke-linejoin="round" stroke-linecap="butt" d="m408.1053 165.04674l-90.02365 -12.290726" fill-rule="evenodd"/><path fill="#000000" stroke="#000000" stroke-width="1.0" stroke-linecap="butt" d="m318.30508 151.11946l-4.719818 1.0226746l4.272949 2.2504272z" fill-rule="evenodd"/><path fill="#000000" fill-opacity="0.0" d="m408.60083 165.51984l82.80313 79.086624" fill-rule="evenodd"/><path stroke="#000000" stroke-width="1.0" stroke-linejoin="round" stroke-linecap="butt" d="m408.6008 165.51984l78.46423 74.942474" fill-rule="evenodd"/><path fill="#000000" stroke="#000000" stroke-width="1.0" stroke-linecap="butt" d="m485.92422 241.65677l4.4225464 1.9399719l-2.1408691 -4.3288727z" fill-rule="evenodd"/><path fill="#ff0000" d="m538.00714 137.00511l0 0c0 -2.4091797 1.607544 -4.362198 3.5905151 -4.362198l0 0c0.95233154 0 1.8656006 0.45957947 2.5389404 1.2776489c0.67333984 0.8180847 1.0516357 1.9276276 1.0516357 3.084549l0 0c0 2.4091797 -1.607544 4.362198 -3.5905762 4.362198l0 0c-1.9829712 0 -3.5905151 -1.9530182 -3.5905151 -4.362198z" fill-rule="evenodd"/><path stroke="#000000" stroke-width="1.0" stroke-linejoin="round" stroke-linecap="butt" d="m538.00714 137.00511l0 0c0 -2.4091797 1.607544 -4.362198 3.5905151 -4.362198l0 0c0.95233154 0 1.8656006 0.45957947 2.5389404 1.2776489c0.67333984 0.8180847 1.0516357 1.9276276 1.0516357 3.084549l0 0c0 2.4091797 -1.607544 4.362198 -3.5905762 4.362198l0 0c-1.9829712 0 -3.5905151 -1.9530182 -3.5905151 -4.362198z" fill-rule="evenodd"/><path fill="#000000" fill-opacity="0.0" d="m545.2034 116.10601l45.35437 0l0 48.661415l-45.35437 0z" fill-rule="evenodd"/><path fill="#000000" d="m555.4378 146.72913l0 -13.375l1.484375 0l0 1.25q0.53125 -0.734375 1.1875 -1.09375q0.671875 -0.375 1.625 -0.375q1.234375 0 2.171875 0.640625q0.953125 0.625 1.4375 1.796875q0.484375 1.15625 0.484375 2.546875q0 1.484375 -0.53125 2.671875q-0.53125 1.1875 -1.546875 1.828125q-1.015625 0.625 -2.140625 0.625q-0.8125 0 -1.46875 -0.34375q-0.65625 -0.34375 -1.0625 -0.875l0 4.703125l-1.640625 0zm1.484375 -8.484375q0 1.859375 0.75 2.765625q0.765625 0.890625 1.828125 0.890625q1.09375 0 1.875 -0.921875q0.78125 -0.9375 0.78125 -2.875q0 -1.84375 -0.765625 -2.765625q-0.75 -0.921875 -1.8125 -0.921875q-1.046875 0 -1.859375 0.984375q-0.796875 0.96875 -0.796875 2.84375z" fill-rule="nonzero"/><path fill="#000000" fill-opacity="0.0" d="m185.03412 360.45932l223.37009 -194.04724" fill-rule="evenodd"/><path stroke="#ff0000" stroke-width="1.0" stroke-linejoin="round" stroke-linecap="butt" d="m185.03412 360.45932l218.84055 -190.11234" fill-rule="evenodd"/><path fill="#ff0000" stroke="#ff0000" stroke-width="1.0" stroke-linecap="butt" d="m404.95792 171.5939l2.3426514 -4.2230835l-4.5091248 1.7292328z" fill-rule="evenodd"/><path fill="#000000" fill-opacity="0.0" d="m409.86194 165.03455l129.19684 -24.944885" fill-rule="evenodd"/><path stroke="#ff0000" stroke-width="1.0" stroke-linejoin="round" stroke-linecap="butt" d="m409.8619 165.03455l123.30563 -23.807434" fill-rule="evenodd"/><path fill="#ff0000" stroke="#ff0000" stroke-width="1.0" stroke-linecap="butt" d="m533.4807 142.84889l4.142639 -2.4820862l-4.768921 -0.7614746z" fill-rule="evenodd"/><path fill="#000000" fill-opacity="0.0" d="m286.96063 223.97638l39.3071 0l0 41.95276l-39.3071 0z" fill-rule="evenodd"/><path fill="#000000" d="m297.17938 250.89638l0 -9.671875l1.46875 0l0 1.46875q0.5625 -1.03125 1.03125 -1.359375q0.484375 -0.328125 1.0625 -0.328125q0.828125 0 1.6875 0.53125l-0.5625 1.515625q-0.609375 -0.359375 -1.203125 -0.359375q-0.546875 0 -0.96875 0.328125q-0.421875 0.328125 -0.609375 0.890625q-0.28125 0.875 -0.28125 1.921875l0 5.0625l-1.625 0z" fill-rule="nonzero"/><path fill="#000000" d="m306.81393 243.89638l-1.09375 0l0 -6.96875q-0.40625 0.375 -1.046875 0.75q-0.640625 0.375 -1.140625 0.578125l0 -1.0625q0.90625 -0.4375 1.59375 -1.046875q0.6875 -0.609375 0.96875 -1.1875l0.71875 0l0 8.9375zm2.7920227 -4.390625q0 -1.578125 0.328125 -2.53125q0.328125 -0.96875 0.96875 -1.484375q0.640625 -0.53125 1.609375 -0.53125q0.71875 0 1.25 0.296875q0.546875 0.28125 0.890625 0.828125q0.359375 0.53125 0.5625 1.3125q0.203125 0.78125 0.203125 2.109375q0 1.5625 -0.328125 2.53125q-0.328125 0.953125 -0.96875 1.484375q-0.640625 0.53125 -1.609375 0.53125q-1.296875 0 -2.03125 -0.921875q-0.875 -1.109375 -0.875 -3.625zm1.125 0q0 2.1875 0.515625 2.921875q0.515625 0.71875 1.265625 0.71875q0.75 0 1.265625 -0.71875q0.515625 -0.734375 0.515625 -2.921875q0 -2.203125 -0.515625 -2.921875q-0.515625 -0.71875 -1.28125 -0.71875q-0.75 0 -1.203125 0.640625q-0.5625 0.8125 -0.5625 3.0z" fill-rule="nonzero"/><path fill="#000000" fill-opacity="0.0" d="m470.50394 141.36745l39.3071 0l0 41.95276l-39.3071 0z" fill-rule="evenodd"/><path fill="#000000" d="m480.7227 168.28745l0 -9.671875l1.46875 0l0 1.46875q0.5625 -1.03125 1.03125 -1.359375q0.484375 -0.328125 1.0625 -0.328125q0.828125 0 1.6875 0.53125l-0.5625 1.515625q-0.609375 -0.359375 -1.203125 -0.359375q-0.546875 0 -0.96875 0.328125q-0.421875 0.328125 -0.609375 0.890625q-0.28125 0.875 -0.28125 1.921875l0 5.0625l-1.625 0z" fill-rule="nonzero"/><path fill="#000000" d="m486.5291 163.7562l0 -8.921875l1.0 0l0 0.84375q0.359375 -0.5 0.796875 -0.734375q0.453125 -0.25 1.078125 -0.25q0.828125 0 1.453125 0.421875q0.640625 0.421875 0.953125 1.203125q0.328125 0.765625 0.328125 1.703125q0 0.984375 -0.359375 1.78125q-0.359375 0.78125 -1.03125 1.203125q-0.671875 0.421875 -1.421875 0.421875q-0.546875 0 -0.984375 -0.21875q-0.4375 -0.234375 -0.71875 -0.59375l0 3.140625l-1.09375 0zm1.0 -5.65625q0 1.25 0.5 1.84375q0.5 0.59375 1.21875 0.59375q0.734375 0 1.25 -0.609375q0.515625 -0.625 0.515625 -1.921875q0 -1.234375 -0.515625 -1.84375q-0.5 -0.609375 -1.203125 -0.609375q-0.6875 0 -1.234375 0.65625q-0.53125 0.640625 -0.53125 1.890625zm9.745178 3.1875l-1.09375 0l0 -6.96875q-0.40625 0.375 -1.046875 0.75q-0.640625 0.375 -1.140625 0.578125l0 -1.0625q0.90625 -0.4375 1.59375 -1.046875q0.6875 -0.609375 0.96875 -1.1875l0.71875 0l0 8.9375z" fill-rule="nonzero"/><path fill="#000000" fill-opacity="0.0" d="m185.98792 358.54636l353.07086 -218.4567" fill-rule="evenodd"/><path stroke="#ff0000" stroke-width="1.0" stroke-linejoin="round" stroke-linecap="butt" d="m185.98792 358.54636l347.9685 -215.29973" fill-rule="evenodd"/><path fill="#ff0000" stroke="#ff0000" stroke-width="1.0" stroke-linecap="butt" d="m534.82556 144.65123l2.9900513 -3.7923737l-4.7282104 0.98316956z" fill-rule="evenodd"/><path fill="#000000" fill-opacity="0.0" d="m390.23096 218.81102l39.3071 0l0 41.952774l-39.3071 0z" fill-rule="evenodd"/><path fill="#000000" d="m400.4497 245.73102l0 -9.671875l1.46875 0l0 1.46875q0.5625 -1.03125 1.03125 -1.359375q0.484375 -0.328125 1.0625 -0.328125q0.828125 0 1.6875 0.53125l-0.5625 1.515625q-0.609375 -0.359375 -1.203125 -0.359375q-0.546875 0 -0.96875 0.328125q-0.421875 0.328125 -0.609375 0.890625q-0.28125 0.875 -0.28125 1.921875l0 5.0625l-1.625 0z" fill-rule="nonzero"/><path fill="#000000" d="m406.25613 241.19977l0 -8.921875l1.0 0l0 0.84375q0.359375 -0.5 0.796875 -0.734375q0.453125 -0.25 1.078125 -0.25q0.828125 0 1.453125 0.421875q0.640625 0.421875 0.953125 1.203125q0.328125 0.765625 0.328125 1.703125q0 0.984375 -0.359375 1.78125q-0.359375 0.78125 -1.03125 1.203125q-0.671875 0.421875 -1.421875 0.421875q-0.546875 0 -0.984375 -0.21875q-0.4375 -0.234375 -0.71875 -0.59375l0 3.140625l-1.09375 0zm1.0 -5.65625q0 1.25 0.5 1.84375q0.5 0.59375 1.21875 0.59375q0.734375 0 1.25 -0.609375q0.515625 -0.625 0.515625 -1.921875q0 -1.234375 -0.515625 -1.84375q-0.5 -0.609375 -1.203125 -0.609375q-0.6875 0 -1.234375 0.65625q-0.53125 0.640625 -0.53125 1.890625zm5.620178 -1.203125q0 -1.578125 0.328125 -2.53125q0.328125 -0.96875 0.96875 -1.484375q0.640625 -0.53125 1.609375 -0.53125q0.71875 0 1.25 0.296875q0.546875 0.28125 0.890625 0.828125q0.359375 0.53125 0.5625 1.3125q0.203125 0.78125 0.203125 2.109375q0 1.5625 -0.328125 2.53125q-0.328125 0.953125 -0.96875 1.484375q-0.640625 0.53125 -1.609375 0.53125q-1.296875 0 -2.03125 -0.921875q-0.875 -1.109375 -0.875 -3.625zm1.125 0q0 2.1875 0.515625 2.921875q0.515625 0.71875 1.265625 0.71875q0.75 0 1.265625 -0.71875q0.515625 -0.734375 0.515625 -2.921875q0 -2.203125 -0.515625 -2.921875q-0.515625 -0.71875 -1.28125 -0.71875q-0.75 0 -1.203125 0.640625q-0.5625 0.8125 -0.5625 3.0z" fill-rule="nonzero"/><path fill="#000000" fill-opacity="0.0" d="m408.99475 163.95538l-42.204712 -147.2441" fill-rule="evenodd"/><path stroke="#0000ff" stroke-width="2.0" stroke-linejoin="round" stroke-linecap="butt" d="m408.99475 163.95538l-38.898285 -135.7086" fill-rule="evenodd"/><path fill="#0000ff" stroke="#0000ff" stroke-width="2.0" stroke-linecap="butt" d="m373.27203 27.336554l-5.6763916 -7.81464l-0.67477417 9.635084z" fill-rule="evenodd"/><path fill="#000000" fill-opacity="0.0" d="m384.37796 131.64568l39.307068 0l0 53.700775l-39.307068 0z" fill-rule="evenodd"/><path fill="#000000" d="m400.3311 158.56567l-1.640625 0l0 -10.453125q-0.59375 0.5625 -1.5625 1.140625q-0.953125 0.5625 -1.71875 0.84375l0 -1.59375q1.375 -0.640625 2.40625 -1.5625q1.03125 -0.921875 1.453125 -1.78125l1.0625 0l0 13.40625z" fill-rule="nonzero"/><path fill="#000000" fill-opacity="0.0" d="m340.4672 9.837271l39.3071 0l0 34.456696l-39.3071 0z" fill-rule="evenodd"/><path fill="#ffffff" d="m349.4672 18.837269l11.826172 0l0 16.8l-11.826172 0l0 -16.8z" fill-rule="nonzero"/><path fill="#000000" fill-opacity="0.0" d="m349.4672 19.603441l11.826172 0l0 16.09863l-11.826172 0l0 -16.09863z" fill-rule="nonzero"/><path fill="#222222" d="m351.0297 25.011644l1.828125 0q-0.890625 1.875 -0.890625 3.828125q0 1.125 0.390625 1.609375q0.40625 0.46875 0.953125 0.46875q0.375 0 0.65625 -0.21875q0.296875 -0.234375 0.375 -0.578125q0.078125 -0.34375 0.078125 -1.046875l0 -2.203125l1.921875 0l0 2.203125q0 0.671875 0.078125 1.03125q0.078125 0.359375 0.359375 0.59375q0.296875 0.21875 0.671875 0.21875q0.578125 0 0.953125 -0.5q0.390625 -0.5 0.390625 -1.640625q0 -0.78125 -0.234375 -1.828125q-0.234375 -1.046875 -0.65625 -1.9375l1.828125 0q0.390625 0.640625 0.703125 1.75q0.328125 1.09375 0.328125 2.015625q0 1.609375 -0.84375 2.640625q-0.84375 1.0312481 -2.234375 1.0312481q-1.65625 0 -2.296875 -1.5312481q-0.65625 1.5312481 -2.3125 1.5312481q-1.390625 0 -2.234375 -1.0312481q-0.84375 -1.046875 -0.84375 -2.640625q0 -0.921875 0.328125 -2.015625q0.328125 -1.109375 0.703125 -1.75z" fill-rule="nonzero"/></g></svg>